<svg xmlns="http://www.w3.org/2000/svg" width="84" height="60" viewBox="0 0 84 60">
  <g fill="none" fill-rule="evenodd" transform="translate(7 5.5)">
    <path fill="#017AFF" stroke="#FFF" stroke-width="3.5" d="M3.74690179,7.14550839 C2.78783234,7.22515012 2.05,8.0267921 2.05,8.98916262 L2.05,41.2186075 C2.05,42.1938364 2.80704719,43.0015897 3.78023021,43.0647264 L65.8109994,47.0890675 C65.8508703,47.0916541 65.8908145,47.0929485 65.9307692,47.0929485 C66.952496,47.0929485 67.7807692,46.2646753 67.7807692,45.2429485 L67.7807692,3.83808844 C67.7807692,3.78698997 67.7786522,3.73591343 67.7744235,3.68499023 C67.6898697,2.66676811 66.7958931,1.9098804 65.777671,1.9944342 L3.74690179,7.14550839 Z"/>
    <path stroke="#004D9E" d="M3.65114936,5.89979606 C2.04406001,6.03324978 0.807692308,7.37654175 0.807692308,8.98916262 L0.807692308,41.2186075 C0.807692308,42.8527748 2.07625787,44.2063074 3.70699698,44.3121041 L65.7377662,48.3364451 C65.8045769,48.3407796 65.8715104,48.3429485 65.9384615,48.3429485 C67.6505443,48.3429485 69.0384615,46.9550312 69.0384615,45.2429485 L69.0384615,3.83808844 C69.0384615,3.75246397 69.034914,3.66687626 69.0278281,3.58154549 C68.8861433,1.87533546 67.3881286,0.607037126 65.6819186,0.748721883 L3.65114936,5.89979606 Z"/>
  </g>
</svg>
